<svg width="320" height="320" viewBox="0 0 320 320" fill="none" xmlns="http://www.w3.org/2000/svg">
<path d="M295 0C308.807 0 320 11.1929 320 25V295C320 308.807 308.807 320 295 320H245C231.193 320 220 308.807 220 295V25C220 11.1929 231.193 0 245 0L295 0Z" fill="url(#paint0_linear_2_29)"/>
<path d="M75 0C88.8071 0 100 11.1929 100 25L100 295C100 308.807 88.8071 320 75 320H25C11.1929 320 0 308.807 0 295V25C0 11.1929 11.1929 0 25 0L75 0Z" fill="url(#paint1_linear_2_29)"/>
<defs>
<linearGradient id="paint0_linear_2_29" x1="-1.49012e-06" y1="160" x2="320" y2="160" gradientUnits="userSpaceOnUse">
<stop stop-color="#725AC1"/>
<stop offset="1" stop-color="#877DC7"/>
</linearGradient>
<linearGradient id="paint1_linear_2_29" x1="-1.49012e-06" y1="160" x2="320" y2="160" gradientUnits="userSpaceOnUse">
<stop stop-color="#725AC1"/>
<stop offset="1" stop-color="#877DC7"/>
</linearGradient>
</defs>
</svg>
